<svg xmlns="http://www.w3.org/2000/svg" viewBox="0 0 32 32">
  <!-- Fondo circular -->
  <circle cx="16" cy="16" r="16" fill="#C0C0C0"/>
  
  <!-- Letra S estilizada como libro -->
  <path d="M10 8 
           C10 8, 22 8, 22 8
           C22 8, 22 12, 22 12
           C22 12, 14 12, 14 12
           C14 12, 14 15, 14 15
           C14 15, 22 15, 22 15
           C22 15, 22 24, 22 24
           C22 24, 10 24, 10 24
           C10 24, 10 20, 10 20
           C10 20, 18 20, 18 20
           C18 20, 18 17, 18 17
           C18 17, 10 17, 10 17
           Z" 
        fill="#404040"/>
</svg>
